<svg id="V4" xmlns="http://www.w3.org/2000/svg" width="1024" height="244" viewBox="0 0 1024 244">
  <defs>
    <style>
      .cls-1 {
        fill: #3b3b3b;
      }

      .cls-1, .cls-2 {
        fill-rule: evenodd;
      }

      .cls-2 {
        fill: #7f3737;
      }
    </style>
  </defs>
  <path id="NOPOINT" class="cls-1" d="M31.686,215.152L31.907,97.345h0l92.952,117.807h12.63V70.217H122.374L123.166,188.6h0L28.994,70.217H16.364V215.152H31.686Zm246.6-4.244A72.577,72.577,0,0,0,302.4,195.483a70.476,70.476,0,0,0,15.943-23.4,74.695,74.695,0,0,0,5.694-29.4,74.721,74.721,0,0,0-5.694-29.4,70.5,70.5,0,0,0-15.943-23.4,72.614,72.614,0,0,0-24.121-15.425,86.587,86.587,0,0,0-60.666,0,71.612,71.612,0,0,0-40.064,38.926,73.9,73.9,0,0,0-5.694,29.3,73.89,73.89,0,0,0,5.694,29.3,71.378,71.378,0,0,0,40.168,38.926A86.3,86.3,0,0,0,278.281,210.908Zm-54.454-12.63a57.545,57.545,0,0,1-32.3-31.782,64.771,64.771,0,0,1,0-47.726,57.793,57.793,0,0,1,32.3-31.678,64.907,64.907,0,0,1,24.224-4.452,64.121,64.121,0,0,1,24.122,4.452,57.018,57.018,0,0,1,19.256,12.63,58.857,58.857,0,0,1,12.733,19.048,61.309,61.309,0,0,1,4.555,23.915,61.3,61.3,0,0,1-4.555,23.914,58.824,58.824,0,0,1-12.733,19.049,56.935,56.935,0,0,1-19.256,12.63,64.056,64.056,0,0,1-24.122,4.451A64.841,64.841,0,0,1,223.827,198.278Zm149.9,16.874-0.014-58.074v11.615l38.94,0.7q18.426,0,31.678-6a46.248,46.248,0,0,0,20.395-17.082q7.143-11.074,7.143-26.4,0-15.732-7.143-26.813a45.63,45.63,0,0,0-20.395-16.978q-13.253-5.9-31.678-5.9H358.407V215.152h15.322ZM373.715,82.411h0l38.526,1.057q21.74,0,33.024,9.524t11.284,26.917q0,17.188-11.284,26.606t-33.024,9.421l-38.526,1.142V82.411Zm226.939,128.5a72.577,72.577,0,0,0,24.121-15.425,70.476,70.476,0,0,0,15.943-23.4,74.695,74.695,0,0,0,5.694-29.4,74.721,74.721,0,0,0-5.694-29.4,70.5,70.5,0,0,0-15.943-23.4,72.614,72.614,0,0,0-24.121-15.425,86.587,86.587,0,0,0-60.666,0,71.612,71.612,0,0,0-40.064,38.926,73.9,73.9,0,0,0-5.694,29.3,73.89,73.89,0,0,0,5.694,29.3,71.378,71.378,0,0,0,40.168,38.926A86.3,86.3,0,0,0,600.654,210.908ZM546.2,198.278A57.545,57.545,0,0,1,513.9,166.5a64.785,64.785,0,0,1,0-47.726,57.793,57.793,0,0,1,32.3-31.678,64.909,64.909,0,0,1,24.225-4.452,64.12,64.12,0,0,1,24.121,4.452A57.018,57.018,0,0,1,613.8,99.722a58.841,58.841,0,0,1,12.733,19.048,61.309,61.309,0,0,1,4.555,23.915,61.3,61.3,0,0,1-4.555,23.914A58.808,58.808,0,0,1,613.8,185.648a56.935,56.935,0,0,1-19.256,12.63,64.055,64.055,0,0,1-24.121,4.451A64.843,64.843,0,0,1,546.2,198.278Zm149.9,16.874V70.217H680.78V215.152H696.1Zm62.527,0,0.035-117.807h0L851.8,215.152h12.63V70.217H849.317L849.924,188.6h0L755.937,70.217h-12.63V215.152h15.322Zm196.489,0V83.468h50.932V70.217H888.861V83.468H939.8V215.152h15.322Z"/>
  <path id="i" class="cls-2" d="M696.844,42.823a10.605,10.605,0,0,0,3-7.661,9.506,9.506,0,0,0-3.106-7.247,10.813,10.813,0,0,0-7.661-2.9,10.6,10.6,0,0,0-7.661,3,9.833,9.833,0,0,0-3.106,7.35,10.168,10.168,0,0,0,3.106,7.454A11.13,11.13,0,0,0,696.844,42.823Z"/>
</svg>
